<mxfile host="app.diagrams.net" modified="2023-10-14T16:26:31.815Z" agent="Mozilla/5.0 (Macintosh; Intel Mac OS X 10_15_7) AppleWebKit/537.36 (KHTML, like Gecko) Chrome/117.0.0.0 Safari/537.36 Edg/117.0.2045.55" etag="-9GE5fVK7LkNuSH23woV" version="21.3.5" type="github">
  <diagram name="第 1 页" id="DIsEM4SBN5Rp2U_GCxSt">
    <mxGraphModel dx="396" dy="282" grid="0" gridSize="10" guides="0" tooltips="1" connect="1" arrows="1" fold="1" page="1" pageScale="1" pageWidth="827" pageHeight="1169" math="0" shadow="0">
      <root>
        <mxCell id="0" />
        <mxCell id="1" parent="0" />
        <mxCell id="AGagmPV6Shr014wRUCwk-7" style="rounded=0;orthogonalLoop=1;jettySize=auto;html=1;exitX=0;exitY=1;exitDx=0;exitDy=0;entryX=1;entryY=0;entryDx=0;entryDy=0;endArrow=none;endFill=0;" edge="1" parent="1" source="AGagmPV6Shr014wRUCwk-1" target="AGagmPV6Shr014wRUCwk-3">
          <mxGeometry relative="1" as="geometry" />
        </mxCell>
        <mxCell id="AGagmPV6Shr014wRUCwk-8" style="rounded=0;orthogonalLoop=1;jettySize=auto;html=1;exitX=0.5;exitY=1;exitDx=0;exitDy=0;entryX=0.5;entryY=0;entryDx=0;entryDy=0;endArrow=none;endFill=0;" edge="1" parent="1" source="AGagmPV6Shr014wRUCwk-1" target="AGagmPV6Shr014wRUCwk-2">
          <mxGeometry relative="1" as="geometry" />
        </mxCell>
        <mxCell id="AGagmPV6Shr014wRUCwk-16" style="rounded=0;orthogonalLoop=1;jettySize=auto;html=1;exitX=1;exitY=1;exitDx=0;exitDy=0;entryX=0;entryY=0;entryDx=0;entryDy=0;endArrow=none;endFill=0;" edge="1" parent="1" source="AGagmPV6Shr014wRUCwk-1" target="AGagmPV6Shr014wRUCwk-14">
          <mxGeometry relative="1" as="geometry" />
        </mxCell>
        <mxCell id="AGagmPV6Shr014wRUCwk-21" style="edgeStyle=orthogonalEdgeStyle;rounded=0;orthogonalLoop=1;jettySize=auto;html=1;exitX=1;exitY=0.5;exitDx=0;exitDy=0;entryX=0;entryY=0.5;entryDx=0;entryDy=0;dashed=1;endArrow=none;endFill=0;" edge="1" parent="1" source="AGagmPV6Shr014wRUCwk-1" target="AGagmPV6Shr014wRUCwk-20">
          <mxGeometry relative="1" as="geometry" />
        </mxCell>
        <mxCell id="AGagmPV6Shr014wRUCwk-1" value="7" style="ellipse;whiteSpace=wrap;html=1;aspect=fixed;" vertex="1" parent="1">
          <mxGeometry x="168" y="184" width="24" height="24" as="geometry" />
        </mxCell>
        <mxCell id="AGagmPV6Shr014wRUCwk-13" style="rounded=0;orthogonalLoop=1;jettySize=auto;html=1;exitX=0.5;exitY=1;exitDx=0;exitDy=0;entryX=0.5;entryY=0;entryDx=0;entryDy=0;endArrow=none;endFill=0;" edge="1" parent="1" source="AGagmPV6Shr014wRUCwk-2" target="AGagmPV6Shr014wRUCwk-12">
          <mxGeometry relative="1" as="geometry" />
        </mxCell>
        <mxCell id="AGagmPV6Shr014wRUCwk-2" value="17" style="ellipse;whiteSpace=wrap;html=1;aspect=fixed;" vertex="1" parent="1">
          <mxGeometry x="168" y="227" width="24" height="24" as="geometry" />
        </mxCell>
        <mxCell id="AGagmPV6Shr014wRUCwk-9" style="rounded=0;orthogonalLoop=1;jettySize=auto;html=1;exitX=0.5;exitY=1;exitDx=0;exitDy=0;endArrow=none;endFill=0;" edge="1" parent="1" source="AGagmPV6Shr014wRUCwk-3" target="AGagmPV6Shr014wRUCwk-4">
          <mxGeometry relative="1" as="geometry" />
        </mxCell>
        <mxCell id="AGagmPV6Shr014wRUCwk-10" style="rounded=0;orthogonalLoop=1;jettySize=auto;html=1;exitX=0;exitY=1;exitDx=0;exitDy=0;entryX=1;entryY=0;entryDx=0;entryDy=0;endArrow=none;endFill=0;" edge="1" parent="1" source="AGagmPV6Shr014wRUCwk-3" target="AGagmPV6Shr014wRUCwk-5">
          <mxGeometry relative="1" as="geometry" />
        </mxCell>
        <mxCell id="AGagmPV6Shr014wRUCwk-3" value="25" style="ellipse;whiteSpace=wrap;html=1;aspect=fixed;" vertex="1" parent="1">
          <mxGeometry x="126" y="228" width="24" height="24" as="geometry" />
        </mxCell>
        <mxCell id="AGagmPV6Shr014wRUCwk-4" value="46" style="ellipse;whiteSpace=wrap;html=1;aspect=fixed;" vertex="1" parent="1">
          <mxGeometry x="126" y="271" width="24" height="24" as="geometry" />
        </mxCell>
        <mxCell id="AGagmPV6Shr014wRUCwk-11" style="rounded=0;orthogonalLoop=1;jettySize=auto;html=1;exitX=0.5;exitY=1;exitDx=0;exitDy=0;endArrow=none;endFill=0;" edge="1" parent="1" source="AGagmPV6Shr014wRUCwk-5" target="AGagmPV6Shr014wRUCwk-6">
          <mxGeometry relative="1" as="geometry" />
        </mxCell>
        <mxCell id="AGagmPV6Shr014wRUCwk-5" value="26" style="ellipse;whiteSpace=wrap;html=1;aspect=fixed;fontColor=#FAFAFA;fillColor=#000000;" vertex="1" parent="1">
          <mxGeometry x="87" y="271" width="24" height="24" as="geometry" />
        </mxCell>
        <mxCell id="AGagmPV6Shr014wRUCwk-6" value="34" style="ellipse;whiteSpace=wrap;html=1;aspect=fixed;" vertex="1" parent="1">
          <mxGeometry x="87" y="315" width="24" height="24" as="geometry" />
        </mxCell>
        <mxCell id="AGagmPV6Shr014wRUCwk-12" value="30" style="ellipse;whiteSpace=wrap;html=1;aspect=fixed;" vertex="1" parent="1">
          <mxGeometry x="168" y="271" width="24" height="24" as="geometry" />
        </mxCell>
        <mxCell id="AGagmPV6Shr014wRUCwk-14" value="24" style="ellipse;whiteSpace=wrap;html=1;aspect=fixed;" vertex="1" parent="1">
          <mxGeometry x="207" y="227" width="24" height="24" as="geometry" />
        </mxCell>
        <mxCell id="AGagmPV6Shr014wRUCwk-18" style="edgeStyle=orthogonalEdgeStyle;rounded=0;orthogonalLoop=1;jettySize=auto;html=1;entryX=0.5;entryY=0;entryDx=0;entryDy=0;" edge="1" parent="1" source="AGagmPV6Shr014wRUCwk-17" target="AGagmPV6Shr014wRUCwk-1">
          <mxGeometry relative="1" as="geometry" />
        </mxCell>
        <mxCell id="AGagmPV6Shr014wRUCwk-17" value="&lt;i&gt;H.min&lt;/i&gt;" style="text;html=1;strokeColor=none;fillColor=none;align=center;verticalAlign=middle;whiteSpace=wrap;rounded=0;" vertex="1" parent="1">
          <mxGeometry x="150" y="131" width="60" height="22" as="geometry" />
        </mxCell>
        <mxCell id="AGagmPV6Shr014wRUCwk-25" style="rounded=0;orthogonalLoop=1;jettySize=auto;html=1;exitX=0;exitY=1;exitDx=0;exitDy=0;entryX=1;entryY=0;entryDx=0;entryDy=0;endArrow=none;endFill=0;" edge="1" parent="1" source="AGagmPV6Shr014wRUCwk-20" target="AGagmPV6Shr014wRUCwk-23">
          <mxGeometry relative="1" as="geometry" />
        </mxCell>
        <mxCell id="AGagmPV6Shr014wRUCwk-26" style="rounded=0;orthogonalLoop=1;jettySize=auto;html=1;exitX=1;exitY=1;exitDx=0;exitDy=0;entryX=0;entryY=0;entryDx=0;entryDy=0;endArrow=none;endFill=0;" edge="1" parent="1" source="AGagmPV6Shr014wRUCwk-20" target="AGagmPV6Shr014wRUCwk-24">
          <mxGeometry relative="1" as="geometry" />
        </mxCell>
        <mxCell id="AGagmPV6Shr014wRUCwk-33" style="edgeStyle=orthogonalEdgeStyle;rounded=0;orthogonalLoop=1;jettySize=auto;html=1;exitX=1;exitY=0.5;exitDx=0;exitDy=0;entryX=0;entryY=0.5;entryDx=0;entryDy=0;dashed=1;endArrow=none;endFill=0;" edge="1" parent="1" source="AGagmPV6Shr014wRUCwk-20" target="AGagmPV6Shr014wRUCwk-31">
          <mxGeometry relative="1" as="geometry" />
        </mxCell>
        <mxCell id="AGagmPV6Shr014wRUCwk-20" value="18" style="ellipse;whiteSpace=wrap;html=1;aspect=fixed;fontColor=#FAFAFA;fillColor=#000000;" vertex="1" parent="1">
          <mxGeometry x="282" y="184" width="24" height="24" as="geometry" />
        </mxCell>
        <mxCell id="AGagmPV6Shr014wRUCwk-29" style="rounded=0;orthogonalLoop=1;jettySize=auto;html=1;exitX=0.5;exitY=1;exitDx=0;exitDy=0;entryX=0.5;entryY=0;entryDx=0;entryDy=0;endArrow=none;endFill=0;" edge="1" parent="1" source="AGagmPV6Shr014wRUCwk-23" target="AGagmPV6Shr014wRUCwk-27">
          <mxGeometry relative="1" as="geometry" />
        </mxCell>
        <mxCell id="AGagmPV6Shr014wRUCwk-23" value="20" style="ellipse;whiteSpace=wrap;html=1;aspect=fixed;" vertex="1" parent="1">
          <mxGeometry x="244" y="227" width="24" height="24" as="geometry" />
        </mxCell>
        <mxCell id="AGagmPV6Shr014wRUCwk-24" value="39" style="ellipse;whiteSpace=wrap;html=1;aspect=fixed;fontColor=#FAFAFA;fillColor=#000000;" vertex="1" parent="1">
          <mxGeometry x="318" y="226" width="24" height="24" as="geometry" />
        </mxCell>
        <mxCell id="AGagmPV6Shr014wRUCwk-27" value="55" style="ellipse;whiteSpace=wrap;html=1;aspect=fixed;" vertex="1" parent="1">
          <mxGeometry x="244" y="272" width="24" height="24" as="geometry" />
        </mxCell>
        <mxCell id="AGagmPV6Shr014wRUCwk-30" style="rounded=0;orthogonalLoop=1;jettySize=auto;html=1;exitX=0.5;exitY=1;exitDx=0;exitDy=0;entryX=0.5;entryY=0;entryDx=0;entryDy=0;endArrow=none;endFill=0;" edge="1" parent="1" source="AGagmPV6Shr014wRUCwk-31" target="AGagmPV6Shr014wRUCwk-32">
          <mxGeometry relative="1" as="geometry" />
        </mxCell>
        <mxCell id="AGagmPV6Shr014wRUCwk-31" value="38" style="ellipse;whiteSpace=wrap;html=1;aspect=fixed;" vertex="1" parent="1">
          <mxGeometry x="368" y="184" width="24" height="24" as="geometry" />
        </mxCell>
        <mxCell id="AGagmPV6Shr014wRUCwk-32" value="41" style="ellipse;whiteSpace=wrap;html=1;aspect=fixed;" vertex="1" parent="1">
          <mxGeometry x="368" y="227" width="24" height="24" as="geometry" />
        </mxCell>
        <mxCell id="AGagmPV6Shr014wRUCwk-64" style="rounded=0;orthogonalLoop=1;jettySize=auto;html=1;exitX=0;exitY=1;exitDx=0;exitDy=0;entryX=1;entryY=0;entryDx=0;entryDy=0;endArrow=none;endFill=0;" edge="1" parent="1" source="AGagmPV6Shr014wRUCwk-66" target="AGagmPV6Shr014wRUCwk-68">
          <mxGeometry relative="1" as="geometry" />
        </mxCell>
        <mxCell id="AGagmPV6Shr014wRUCwk-65" style="rounded=0;orthogonalLoop=1;jettySize=auto;html=1;exitX=1;exitY=1;exitDx=0;exitDy=0;entryX=0;entryY=0;entryDx=0;entryDy=0;endArrow=none;endFill=0;" edge="1" parent="1" source="AGagmPV6Shr014wRUCwk-66" target="AGagmPV6Shr014wRUCwk-69">
          <mxGeometry relative="1" as="geometry" />
        </mxCell>
        <mxCell id="AGagmPV6Shr014wRUCwk-66" value="17" style="ellipse;whiteSpace=wrap;html=1;aspect=fixed;fontColor=#FAFAFA;fillColor=#000000;" vertex="1" parent="1">
          <mxGeometry x="159" y="393" width="24" height="24" as="geometry" />
        </mxCell>
        <mxCell id="AGagmPV6Shr014wRUCwk-67" style="rounded=0;orthogonalLoop=1;jettySize=auto;html=1;exitX=0.5;exitY=1;exitDx=0;exitDy=0;entryX=0.5;entryY=0;entryDx=0;entryDy=0;endArrow=none;endFill=0;" edge="1" parent="1" source="AGagmPV6Shr014wRUCwk-68" target="AGagmPV6Shr014wRUCwk-70">
          <mxGeometry relative="1" as="geometry" />
        </mxCell>
        <mxCell id="AGagmPV6Shr014wRUCwk-68" value="38" style="ellipse;whiteSpace=wrap;html=1;aspect=fixed;" vertex="1" parent="1">
          <mxGeometry x="121" y="436" width="24" height="24" as="geometry" />
        </mxCell>
        <mxCell id="AGagmPV6Shr014wRUCwk-69" value="39" style="ellipse;whiteSpace=wrap;html=1;aspect=fixed;fontColor=#FAFAFA;fillColor=#000000;" vertex="1" parent="1">
          <mxGeometry x="195" y="435" width="24" height="24" as="geometry" />
        </mxCell>
        <mxCell id="AGagmPV6Shr014wRUCwk-70" value="41" style="ellipse;whiteSpace=wrap;html=1;aspect=fixed;" vertex="1" parent="1">
          <mxGeometry x="121" y="481" width="24" height="24" as="geometry" />
        </mxCell>
        <mxCell id="AGagmPV6Shr014wRUCwk-74" style="edgeStyle=orthogonalEdgeStyle;rounded=0;orthogonalLoop=1;jettySize=auto;html=1;exitX=1;exitY=0.5;exitDx=0;exitDy=0;entryX=0;entryY=0.5;entryDx=0;entryDy=0;dashed=1;endArrow=none;endFill=0;" edge="1" parent="1" source="AGagmPV6Shr014wRUCwk-71" target="AGagmPV6Shr014wRUCwk-73">
          <mxGeometry relative="1" as="geometry" />
        </mxCell>
        <mxCell id="AGagmPV6Shr014wRUCwk-71" value="17" style="ellipse;whiteSpace=wrap;html=1;aspect=fixed;" vertex="1" parent="1">
          <mxGeometry x="159" y="393" width="24" height="24" as="geometry" />
        </mxCell>
        <mxCell id="AGagmPV6Shr014wRUCwk-72" value="30" style="ellipse;whiteSpace=wrap;html=1;aspect=fixed;" vertex="1" parent="1">
          <mxGeometry x="195" y="435" width="24" height="24" as="geometry" />
        </mxCell>
        <mxCell id="AGagmPV6Shr014wRUCwk-92" style="edgeStyle=orthogonalEdgeStyle;rounded=0;orthogonalLoop=1;jettySize=auto;html=1;exitX=1;exitY=0.5;exitDx=0;exitDy=0;entryX=0;entryY=0.5;entryDx=0;entryDy=0;dashed=1;endArrow=none;endFill=0;" edge="1" parent="1" source="AGagmPV6Shr014wRUCwk-73" target="AGagmPV6Shr014wRUCwk-80">
          <mxGeometry relative="1" as="geometry" />
        </mxCell>
        <mxCell id="AGagmPV6Shr014wRUCwk-73" value="24" style="ellipse;whiteSpace=wrap;html=1;aspect=fixed;" vertex="1" parent="1">
          <mxGeometry x="256" y="393" width="24" height="24" as="geometry" />
        </mxCell>
        <mxCell id="AGagmPV6Shr014wRUCwk-75" style="edgeStyle=orthogonalEdgeStyle;rounded=0;orthogonalLoop=1;jettySize=auto;html=1;entryX=0.5;entryY=0;entryDx=0;entryDy=0;" edge="1" parent="1" source="AGagmPV6Shr014wRUCwk-76">
          <mxGeometry relative="1" as="geometry">
            <mxPoint x="171" y="393" as="targetPoint" />
          </mxGeometry>
        </mxCell>
        <mxCell id="AGagmPV6Shr014wRUCwk-76" value="&lt;i&gt;H.min&lt;/i&gt;" style="text;html=1;strokeColor=none;fillColor=none;align=center;verticalAlign=middle;whiteSpace=wrap;rounded=0;" vertex="1" parent="1">
          <mxGeometry x="141" y="340" width="60" height="22" as="geometry" />
        </mxCell>
        <mxCell id="AGagmPV6Shr014wRUCwk-77" style="rounded=0;orthogonalLoop=1;jettySize=auto;html=1;exitX=0;exitY=1;exitDx=0;exitDy=0;entryX=1;entryY=0;entryDx=0;entryDy=0;endArrow=none;endFill=0;" edge="1" parent="1" source="AGagmPV6Shr014wRUCwk-80" target="AGagmPV6Shr014wRUCwk-85">
          <mxGeometry relative="1" as="geometry" />
        </mxCell>
        <mxCell id="AGagmPV6Shr014wRUCwk-78" style="rounded=0;orthogonalLoop=1;jettySize=auto;html=1;exitX=0.5;exitY=1;exitDx=0;exitDy=0;entryX=0.5;entryY=0;entryDx=0;entryDy=0;endArrow=none;endFill=0;" edge="1" parent="1" source="AGagmPV6Shr014wRUCwk-80" target="AGagmPV6Shr014wRUCwk-82">
          <mxGeometry relative="1" as="geometry" />
        </mxCell>
        <mxCell id="AGagmPV6Shr014wRUCwk-79" style="rounded=0;orthogonalLoop=1;jettySize=auto;html=1;exitX=1;exitY=1;exitDx=0;exitDy=0;entryX=0;entryY=0;entryDx=0;entryDy=0;endArrow=none;endFill=0;" edge="1" parent="1" source="AGagmPV6Shr014wRUCwk-80" target="AGagmPV6Shr014wRUCwk-91">
          <mxGeometry relative="1" as="geometry" />
        </mxCell>
        <mxCell id="AGagmPV6Shr014wRUCwk-80" value="7" style="ellipse;whiteSpace=wrap;html=1;aspect=fixed;" vertex="1" parent="1">
          <mxGeometry x="332" y="393" width="24" height="24" as="geometry" />
        </mxCell>
        <mxCell id="AGagmPV6Shr014wRUCwk-81" style="rounded=0;orthogonalLoop=1;jettySize=auto;html=1;exitX=0.5;exitY=1;exitDx=0;exitDy=0;entryX=0.5;entryY=0;entryDx=0;entryDy=0;endArrow=none;endFill=0;" edge="1" parent="1" target="AGagmPV6Shr014wRUCwk-90">
          <mxGeometry relative="1" as="geometry">
            <mxPoint x="344" y="460" as="sourcePoint" />
          </mxGeometry>
        </mxCell>
        <mxCell id="AGagmPV6Shr014wRUCwk-82" value="20" style="ellipse;whiteSpace=wrap;html=1;aspect=fixed;" vertex="1" parent="1">
          <mxGeometry x="332" y="435" width="24" height="24" as="geometry" />
        </mxCell>
        <mxCell id="AGagmPV6Shr014wRUCwk-83" style="rounded=0;orthogonalLoop=1;jettySize=auto;html=1;exitX=0.5;exitY=1;exitDx=0;exitDy=0;endArrow=none;endFill=0;" edge="1" parent="1" source="AGagmPV6Shr014wRUCwk-85" target="AGagmPV6Shr014wRUCwk-86">
          <mxGeometry relative="1" as="geometry" />
        </mxCell>
        <mxCell id="AGagmPV6Shr014wRUCwk-84" style="rounded=0;orthogonalLoop=1;jettySize=auto;html=1;exitX=0;exitY=1;exitDx=0;exitDy=0;entryX=1;entryY=0;entryDx=0;entryDy=0;endArrow=none;endFill=0;" edge="1" parent="1" source="AGagmPV6Shr014wRUCwk-85" target="AGagmPV6Shr014wRUCwk-88">
          <mxGeometry relative="1" as="geometry" />
        </mxCell>
        <mxCell id="AGagmPV6Shr014wRUCwk-85" value="25" style="ellipse;whiteSpace=wrap;html=1;aspect=fixed;" vertex="1" parent="1">
          <mxGeometry x="290" y="437" width="24" height="24" as="geometry" />
        </mxCell>
        <mxCell id="AGagmPV6Shr014wRUCwk-86" value="46" style="ellipse;whiteSpace=wrap;html=1;aspect=fixed;" vertex="1" parent="1">
          <mxGeometry x="290" y="480" width="24" height="24" as="geometry" />
        </mxCell>
        <mxCell id="AGagmPV6Shr014wRUCwk-87" style="rounded=0;orthogonalLoop=1;jettySize=auto;html=1;exitX=0.5;exitY=1;exitDx=0;exitDy=0;endArrow=none;endFill=0;" edge="1" parent="1" source="AGagmPV6Shr014wRUCwk-88" target="AGagmPV6Shr014wRUCwk-89">
          <mxGeometry relative="1" as="geometry" />
        </mxCell>
        <mxCell id="AGagmPV6Shr014wRUCwk-88" value="26" style="ellipse;whiteSpace=wrap;html=1;aspect=fixed;fontColor=#FAFAFA;fillColor=#000000;" vertex="1" parent="1">
          <mxGeometry x="251" y="480" width="24" height="24" as="geometry" />
        </mxCell>
        <mxCell id="AGagmPV6Shr014wRUCwk-89" value="34" style="ellipse;whiteSpace=wrap;html=1;aspect=fixed;" vertex="1" parent="1">
          <mxGeometry x="251" y="524" width="24" height="24" as="geometry" />
        </mxCell>
        <mxCell id="AGagmPV6Shr014wRUCwk-90" value="55" style="ellipse;whiteSpace=wrap;html=1;aspect=fixed;" vertex="1" parent="1">
          <mxGeometry x="332" y="480" width="24" height="24" as="geometry" />
        </mxCell>
        <mxCell id="AGagmPV6Shr014wRUCwk-91" value="24" style="ellipse;whiteSpace=wrap;html=1;aspect=fixed;" vertex="1" parent="1">
          <mxGeometry x="371" y="436" width="24" height="24" as="geometry" />
        </mxCell>
        <mxCell id="AGagmPV6Shr014wRUCwk-93" value="18" style="ellipse;whiteSpace=wrap;html=1;aspect=fixed;fontColor=#FAFAFA;fillColor=#000000;" vertex="1" parent="1">
          <mxGeometry x="332" y="393" width="24" height="24" as="geometry" />
        </mxCell>
        <mxCell id="AGagmPV6Shr014wRUCwk-95" value="39" style="ellipse;whiteSpace=wrap;html=1;aspect=fixed;fontColor=#FAFAFA;fillColor=#000000;" vertex="1" parent="1">
          <mxGeometry x="371" y="436" width="24" height="24" as="geometry" />
        </mxCell>
      </root>
    </mxGraphModel>
  </diagram>
</mxfile>
